<svg width="147" height="50" viewBox="0 0 147 50" fill="none" xmlns="http://www.w3.org/2000/svg">
<g filter="url(#filter0_d_49_2249)">
<rect x="4" width="139" height="42" rx="19" fill="url(#paint0_linear_49_2249)"/>
<rect x="4.5" y="0.5" width="138" height="41" rx="18.5" stroke="url(#paint1_linear_49_2249)"/>
</g>
<path d="M50.2337 19.0994C50.1153 18.7159 49.9519 18.3726 49.7436 18.0696C49.54 17.7618 49.2938 17.4991 49.005 17.2812C48.7209 17.0634 48.3942 16.9001 48.0249 16.7912C47.6555 16.6776 47.2531 16.6207 46.8175 16.6207C46.0362 16.6207 45.3402 16.8172 44.7294 17.2102C44.1186 17.6032 43.638 18.1809 43.2876 18.9432C42.942 19.7008 42.7692 20.6241 42.7692 21.7131C42.7692 22.8116 42.942 23.742 43.2876 24.5043C43.6333 25.2666 44.1139 25.8466 44.7294 26.2443C45.3449 26.6373 46.0599 26.8338 46.8743 26.8338C47.6129 26.8338 48.2521 26.6918 48.7919 26.4077C49.3364 26.1236 49.7554 25.7211 50.049 25.2003C50.3426 24.6747 50.4893 24.0592 50.4893 23.3537L51.0859 23.446H47.1371V21.3864H53.0391V23.1335C53.0391 24.3788 52.7739 25.456 52.2436 26.3651C51.7133 27.2741 50.9841 27.9749 50.0561 28.4673C49.1281 28.955 48.0627 29.1989 46.8601 29.1989C45.5201 29.1989 44.3435 28.8982 43.3303 28.2969C42.3217 27.6908 41.5334 26.8314 40.9652 25.7188C40.4018 24.6013 40.12 23.2756 40.12 21.7415C40.12 20.5672 40.2857 19.5185 40.6172 18.5952C40.9534 17.6719 41.4221 16.8883 42.0234 16.2443C42.6248 15.5956 43.3303 15.1032 44.1399 14.767C44.9496 14.4261 45.8303 14.2557 46.782 14.2557C47.5869 14.2557 48.3374 14.3741 49.0334 14.6108C49.7294 14.8428 50.3473 15.1742 50.8871 15.6051C51.4316 16.036 51.879 16.5473 52.2294 17.1392C52.5798 17.7311 52.8094 18.3845 52.9183 19.0994H50.2337ZM64.756 14.4545H67.391V23.9574C67.391 24.9991 67.1448 25.9152 66.6523 26.706C66.1647 27.4967 65.4781 28.1146 64.5927 28.5597C63.7073 29 62.6727 29.2202 61.489 29.2202C60.3005 29.2202 59.2636 29 58.3782 28.5597C57.4928 28.1146 56.8062 27.4967 56.3185 26.706C55.8308 25.9152 55.587 24.9991 55.587 23.9574V14.4545H58.2219V23.7372C58.2219 24.3433 58.3545 24.883 58.6197 25.3565C58.8896 25.83 59.2683 26.2017 59.756 26.4716C60.2437 26.7367 60.8214 26.8693 61.489 26.8693C62.1566 26.8693 62.7343 26.7367 63.2219 26.4716C63.7144 26.2017 64.0932 25.83 64.3583 25.3565C64.6235 24.883 64.756 24.3433 64.756 23.7372V14.4545ZM70.255 29V14.4545H79.7152V16.6634H72.8899V20.6122H79.2251V22.821H72.8899V26.7912H79.772V29H70.255ZM90.3082 18.4531C90.242 17.8329 89.9626 17.3499 89.4702 17.0043C88.9825 16.6586 88.348 16.4858 87.5668 16.4858C87.0175 16.4858 86.5464 16.5687 86.1534 16.7344C85.7604 16.9001 85.4598 17.125 85.2514 17.4091C85.0431 17.6932 84.9366 18.0175 84.9318 18.3821C84.9318 18.6851 85.0005 18.9479 85.1378 19.1705C85.2798 19.393 85.4716 19.5824 85.7131 19.7386C85.9545 19.8902 86.2221 20.018 86.5156 20.1222C86.8092 20.2263 87.1051 20.3139 87.4034 20.3849L88.767 20.7259C89.3163 20.8537 89.8442 21.0265 90.3509 21.2443C90.8622 21.4621 91.3191 21.7367 91.7216 22.0682C92.1288 22.3996 92.4508 22.7997 92.6875 23.2685C92.9242 23.7372 93.0426 24.2865 93.0426 24.9162C93.0426 25.7685 92.8248 26.5189 92.3892 27.1676C91.9536 27.8116 91.3239 28.3158 90.5 28.6804C89.6809 29.0402 88.6889 29.2202 87.5241 29.2202C86.3925 29.2202 85.41 29.045 84.5767 28.6946C83.7481 28.3442 83.0994 27.8329 82.6307 27.1605C82.1667 26.4882 81.9157 25.669 81.8778 24.7031H84.4702C84.508 25.2098 84.6643 25.6312 84.9389 25.9673C85.2135 26.3035 85.571 26.5545 86.0114 26.7202C86.4564 26.8859 86.9536 26.9688 87.5028 26.9688C88.0758 26.9688 88.5777 26.8835 89.0085 26.7131C89.4441 26.5379 89.785 26.2964 90.0312 25.9886C90.2775 25.6761 90.4029 25.3116 90.4077 24.8949C90.4029 24.5161 90.2917 24.2036 90.0739 23.9574C89.8561 23.7064 89.5507 23.4981 89.1577 23.3324C88.7694 23.1619 88.3149 23.0104 87.794 22.8778L86.1392 22.4517C84.9413 22.1439 83.9943 21.6776 83.2983 21.0526C82.607 20.4228 82.2614 19.5871 82.2614 18.5455C82.2614 17.6884 82.4934 16.938 82.9574 16.294C83.4261 15.6501 84.063 15.1506 84.8679 14.7955C85.6728 14.4356 86.5843 14.2557 87.6023 14.2557C88.6345 14.2557 89.5388 14.4356 90.3153 14.7955C91.0966 15.1506 91.7098 15.6454 92.1548 16.2798C92.5999 16.9096 92.8295 17.634 92.8438 18.4531H90.3082ZM103.297 18.4531C103.23 17.8329 102.951 17.3499 102.458 17.0043C101.971 16.6586 101.336 16.4858 100.555 16.4858C100.006 16.4858 99.5347 16.5687 99.1417 16.7344C98.7487 16.9001 98.448 17.125 98.2397 17.4091C98.0314 17.6932 97.9248 18.0175 97.9201 18.3821C97.9201 18.6851 97.9888 18.9479 98.1261 19.1705C98.2681 19.393 98.4599 19.5824 98.7013 19.7386C98.9428 19.8902 99.2103 20.018 99.5039 20.1222C99.7975 20.2263 100.093 20.3139 100.392 20.3849L101.755 20.7259C102.305 20.8537 102.833 21.0265 103.339 21.2443C103.85 21.4621 104.307 21.7367 104.71 22.0682C105.117 22.3996 105.439 22.7997 105.676 23.2685C105.913 23.7372 106.031 24.2865 106.031 24.9162C106.031 25.7685 105.813 26.5189 105.377 27.1676C104.942 27.8116 104.312 28.3158 103.488 28.6804C102.669 29.0402 101.677 29.2202 100.512 29.2202C99.3808 29.2202 98.3983 29.045 97.565 28.6946C96.7364 28.3442 96.0877 27.8329 95.619 27.1605C95.1549 26.4882 94.904 25.669 94.8661 24.7031H97.4585C97.4963 25.2098 97.6526 25.6312 97.9272 25.9673C98.2018 26.3035 98.5593 26.5545 98.9996 26.7202C99.4447 26.8859 99.9419 26.9688 100.491 26.9688C101.064 26.9688 101.566 26.8835 101.997 26.7131C102.432 26.5379 102.773 26.2964 103.02 25.9886C103.266 25.6761 103.391 25.3116 103.396 24.8949C103.391 24.5161 103.28 24.2036 103.062 23.9574C102.844 23.7064 102.539 23.4981 102.146 23.3324C101.758 23.1619 101.303 23.0104 100.782 22.8778L99.1275 22.4517C97.9296 22.1439 96.9826 21.6776 96.2866 21.0526C95.5953 20.4228 95.2496 19.5871 95.2496 18.5455C95.2496 17.6884 95.4817 16.938 95.9457 16.294C96.4144 15.6501 97.0513 15.1506 97.8562 14.7955C98.6611 14.4356 99.5726 14.2557 100.591 14.2557C101.623 14.2557 102.527 14.4356 103.304 14.7955C104.085 15.1506 104.698 15.6454 105.143 16.2798C105.588 16.9096 105.818 17.634 105.832 18.4531H103.297Z" fill="black"/>
<defs>
<filter id="filter0_d_49_2249" x="0" y="0" width="147" height="50" filterUnits="userSpaceOnUse" color-interpolation-filters="sRGB">
<feFlood flood-opacity="0" result="BackgroundImageFix"/>
<feColorMatrix in="SourceAlpha" type="matrix" values="0 0 0 0 0 0 0 0 0 0 0 0 0 0 0 0 0 0 127 0" result="hardAlpha"/>
<feOffset dy="4"/>
<feGaussianBlur stdDeviation="2"/>
<feComposite in2="hardAlpha" operator="out"/>
<feColorMatrix type="matrix" values="0 0 0 0 0 0 0 0 0 0 0 0 0 0 0 0 0 0 0.25 0"/>
<feBlend mode="normal" in2="BackgroundImageFix" result="effect1_dropShadow_49_2249"/>
<feBlend mode="normal" in="SourceGraphic" in2="effect1_dropShadow_49_2249" result="shape"/>
</filter>
<linearGradient id="paint0_linear_49_2249" x1="73.5" y1="0" x2="73.5" y2="42" gradientUnits="userSpaceOnUse">
<stop stop-color="#FFDA93"/>
<stop offset="1" stop-color="#998358"/>
</linearGradient>
<linearGradient id="paint1_linear_49_2249" x1="21.8394" y1="9.90299e-07" x2="125.161" y2="42" gradientUnits="userSpaceOnUse">
<stop stop-color="#FFDA93"/>
<stop offset="0.38" stop-color="#998358"/>
<stop offset="1" stop-color="#CCAE76"/>
</linearGradient>
</defs>
</svg>
