<svg width="147" height="50" viewBox="0 0 147 50" fill="none" xmlns="http://www.w3.org/2000/svg">
<g filter="url(#filter0_d_49_2249)">
<rect x="4.5" y="0.5" width="138" height="41" rx="18.5" stroke="url(#paint0_linear_49_2249)" shape-rendering="crispEdges"/>
</g>
<path d="M42.6866 29V14.4545H48.1412C49.2586 14.4545 50.1961 14.6487 50.9537 15.0369C51.716 15.4252 52.2913 15.9697 52.6795 16.6705C53.0725 17.3665 53.269 18.1785 53.269 19.1065C53.269 20.0393 53.0701 20.849 52.6724 21.5355C52.2794 22.2173 51.6994 22.7453 50.9324 23.1193C50.1653 23.4886 49.2231 23.6733 48.1056 23.6733H44.2207V21.4858H47.7505C48.4039 21.4858 48.939 21.3958 49.3556 21.2159C49.7723 21.0312 50.0801 20.7637 50.2789 20.4134C50.4825 20.0582 50.5843 19.6226 50.5843 19.1065C50.5843 18.5904 50.4825 18.1501 50.2789 17.7855C50.0753 17.4162 49.7652 17.1368 49.3485 16.9474C48.9319 16.7533 48.3945 16.6562 47.7363 16.6562H45.3216V29H42.6866ZM50.2008 22.4091L53.8017 29H50.8613L47.3244 22.4091H50.2008ZM55.6944 29V14.4545H65.1547V16.6634H58.3294V20.6122H64.6646V22.821H58.3294V26.7912H65.2115V29H55.6944ZM75.7477 18.4531C75.6814 17.8329 75.402 17.3499 74.9096 17.0043C74.4219 16.6586 73.7875 16.4858 73.0062 16.4858C72.457 16.4858 71.9859 16.5687 71.5929 16.7344C71.1999 16.9001 70.8992 17.125 70.6909 17.4091C70.4825 17.6932 70.376 18.0175 70.3713 18.3821C70.3713 18.6851 70.4399 18.9479 70.5772 19.1705C70.7193 19.393 70.911 19.5824 71.1525 19.7386C71.394 19.8902 71.6615 20.018 71.9551 20.1222C72.2486 20.2263 72.5446 20.3139 72.8429 20.3849L74.2065 20.7259C74.7557 20.8537 75.2837 21.0265 75.7903 21.2443C76.3017 21.4621 76.7586 21.7367 77.161 22.0682C77.5682 22.3996 77.8902 22.7997 78.127 23.2685C78.3637 23.7372 78.4821 24.2865 78.4821 24.9162C78.4821 25.7685 78.2643 26.5189 77.8287 27.1676C77.3931 27.8116 76.7633 28.3158 75.9395 28.6804C75.1203 29.0402 74.1284 29.2202 72.9636 29.2202C71.832 29.2202 70.8495 29.045 70.0162 28.6946C69.1876 28.3442 68.5389 27.8329 68.0701 27.1605C67.6061 26.4882 67.3552 25.669 67.3173 24.7031H69.9096C69.9475 25.2098 70.1038 25.6312 70.3784 25.9673C70.653 26.3035 71.0105 26.5545 71.4508 26.7202C71.8959 26.8859 72.3931 26.9688 72.9423 26.9688C73.5152 26.9688 74.0171 26.8835 74.448 26.7131C74.8836 26.5379 75.2245 26.2964 75.4707 25.9886C75.7169 25.6761 75.8424 25.3116 75.8471 24.8949C75.8424 24.5161 75.7311 24.2036 75.5133 23.9574C75.2955 23.7064 74.9901 23.4981 74.5971 23.3324C74.2089 23.1619 73.7543 23.0104 73.2335 22.8778L71.5787 22.4517C70.3807 22.1439 69.4338 21.6776 68.7377 21.0526C68.0465 20.4228 67.7008 19.5871 67.7008 18.5455C67.7008 17.6884 67.9328 16.938 68.3968 16.294C68.8656 15.6501 69.5024 15.1506 70.3074 14.7955C71.1123 14.4356 72.0237 14.2557 73.0417 14.2557C74.0739 14.2557 74.9783 14.4356 75.7548 14.7955C76.536 15.1506 77.1492 15.6454 77.5943 16.2798C78.0394 16.9096 78.269 17.634 78.2832 18.4531H75.7477ZM80.8311 29V14.4545H90.2914V16.6634H83.4661V20.6122H89.8013V22.821H83.4661V26.7912H90.3482V29H80.8311ZM92.3404 16.6634V14.4545H103.945V16.6634H99.4498V29H96.8361V16.6634H92.3404Z" fill="#FFDA93"/>
<defs>
<filter id="filter0_d_49_2249" x="0" y="0" width="147" height="50" filterUnits="userSpaceOnUse" color-interpolation-filters="sRGB">
<feFlood flood-opacity="0" result="BackgroundImageFix"/>
<feColorMatrix in="SourceAlpha" type="matrix" values="0 0 0 0 0 0 0 0 0 0 0 0 0 0 0 0 0 0 127 0" result="hardAlpha"/>
<feOffset dy="4"/>
<feGaussianBlur stdDeviation="2"/>
<feComposite in2="hardAlpha" operator="out"/>
<feColorMatrix type="matrix" values="0 0 0 0 0 0 0 0 0 0 0 0 0 0 0 0 0 0 0.25 0"/>
<feBlend mode="normal" in2="BackgroundImageFix" result="effect1_dropShadow_49_2249"/>
<feBlend mode="normal" in="SourceGraphic" in2="effect1_dropShadow_49_2249" result="shape"/>
</filter>
<linearGradient id="paint0_linear_49_2249" x1="21.8394" y1="9.90299e-07" x2="125.161" y2="42" gradientUnits="userSpaceOnUse">
<stop stop-color="#FFDA93"/>
<stop offset="0.38" stop-color="#998358"/>
<stop offset="1" stop-color="#CCAE76"/>
</linearGradient>
</defs>
</svg>
